# xmcd
#
# Track frame offsets: 
#        150
#        18047
#        30226
#        48009
#        60351
#        77324
#        91820
#        105016
#        120343
#        136823
#        147489
#        162700
#
# Disc length: 2302 seconds
#
# Revision: 0
# Processed by: cddbd v1.4PL0 Copyright (c) Steve Scherf et al.
# Submitted via: ExactAudioCopy v0.90b3
#
DISCID=7908fc0c
DTITLE=Ray Price - Time
DYEAR=2002
DGENRE=Vocal
TTITLE0=You Just Don't Love Me Anymore
TTITLE1=Fort Worth, Texas
TTITLE2=Time
TTITLE3=Take Back Your Old Love Letters
TTITLE4=Both Sides of Good Bye
TTITLE5=If It's All the Same to You
TTITLE6=No One But You
TTITLE7=If You Think You're Lonely
TTITLE8=I'm Not Leaving (I'm Just Getting Out of Your Way)
TTITLE9=Next Voice You Hear
TTITLE10=What If I Say Goodbye
TTITLE11=Don't You Go Loving Nobody Else
EXTD=Audium/Koch Records AUD-CD-8156
EXTT0=
EXTT1=
EXTT2=
EXTT3=
EXTT4=
EXTT5=
EXTT6=
EXTT7=
EXTT8=
EXTT9=
EXTT10=
EXTT11=
PLAYORDER=
